<?xml version="1.0" encoding="UTF-8" standalone="no"?>
<!DOCTYPE svg PUBLIC "-//W3C//DTD SVG 1.1//EN" "http://www.w3.org/Graphics/SVG/1.1/DTD/svg11.dtd">
<svg xmlns="http://www.w3.org/2000/svg" version="1.1" viewBox="0.00 0.00 48.00 48.00">
<path fill="#fdfefe" d="
  M 32.15 0.00
  L 32.75 0.00
  L 34.47 2.56
  A 1.25 1.25 0.0 0 0 36.57 2.51
  L 38.11 0.00
  L 38.98 0.00
  L 41.80 1.36
  Q 42.39 1.65 42.25 2.29
  L 41.73 4.58
  A 1.31 1.31 0.0 0 0 43.33 6.14
  L 45.56 5.59
  A 0.81 0.81 0.0 0 1 46.48 6.00
  L 48.00 8.95
  L 48.00 9.49
  L 45.29 11.47
  A 1.11 1.11 0.0 0 0 45.34 13.30
  L 48.00 15.05
  L 48.00 15.96
  L 46.63 18.74
  Q 46.38 19.24 45.84 19.14
  L 43.35 18.67
  A 1.26 1.26 0.0 0 0 41.88 20.18
  L 42.41 22.60
  Q 42.56 23.27 41.93 23.54
  L 39.16 24.73
  Q 38.44 25.03 38.03 24.37
  L 36.79 22.41
  A 1.34 1.34 0.0 0 0 34.53 22.39
  L 33.15 24.48
  Q 32.79 25.04 32.18 24.78
  L 28.87 23.39
  Q 28.52 23.24 28.31 23.56
  L 26.65 26.07
  A 1.83 1.82 21.2 0 0 27.89 28.88
  L 30.82 29.35
  A 0.97 0.97 0.0 0 1 31.64 30.31
  L 31.64 34.03
  A 0.91 0.91 0.0 0 1 30.87 34.93
  L 28.12 35.38
  A 2.00 2.00 0.0 0 0 26.81 38.51
  L 28.43 40.81
  Q 28.90 41.47 28.33 42.04
  L 25.64 44.73
  Q 25.18 45.18 24.65 44.81
  L 22.10 43.04
  A 1.93 1.93 0.0 0 0 19.07 44.52
  Q 18.98 46.22 18.16 48.00
  L 13.45 48.00
  Q 12.59 46.07 12.54 44.39
  A 1.80 1.80 0.0 0 0 9.72 42.96
  L 7.27 44.65
  A 1.10 1.09 -39.4 0 1 5.87 44.52
  L 3.42 42.07
  A 1.04 1.03 -50.4 0 1 3.30 40.74
  L 5.04 38.29
  A 1.81 1.81 0.0 0 0 3.64 35.43
  Q 1.90 35.37 0.00 34.44
  L 0.00 29.72
  L 3.95 28.77
  A 1.83 1.83 0.0 0 0 5.01 25.93
  L 3.26 23.48
  A 0.93 0.93 0.0 0 1 3.36 22.29
  L 5.95 19.67
  A 0.97 0.96 39.9 0 1 7.19 19.57
  L 9.65 21.30
  A 1.87 1.87 0.0 0 0 12.57 20.05
  L 13.01 17.13
  A 0.87 0.87 0.0 0 1 13.86 16.39
  L 17.55 16.36
  A 1.10 1.09 85.1 0 1 18.64 17.29
  L 19.10 20.22
  A 1.80 1.80 0.0 0 0 21.91 21.41
  L 24.40 19.66
  Q 24.89 19.32 24.57 18.81
  Q 23.65 17.35 23.31 15.81
  Q 23.16 15.16 23.72 14.81
  L 25.76 13.49
  A 1.19 1.18 -45.3 0 0 25.75 11.49
  L 23.66 10.18
  A 1.02 1.02 0.0 0 1 23.26 8.90
  L 24.45 6.15
  A 0.80 0.79 17.9 0 1 25.35 5.69
  L 27.78 6.23
  A 1.12 1.11 29.0 0 0 28.80 5.94
  Q 29.73 5.02 28.94 3.39
  Q 28.20 1.87 29.73 1.14
  L 32.15 0.00
  Z
  M 34.18 20.05
  Q 37.60 19.26 38.57 21.80
  Q 38.71 22.19 39.09 22.38
  Q 39.30 22.49 39.52 22.55
  A 0.66 0.65 0.9 0 0 40.33 21.77
  L 39.85 19.73
  Q 39.68 19.01 40.20 18.49
  L 42.01 16.67
  A 0.89 0.88 -48.7 0 1 43.17 16.59
  Q 43.91 17.16 44.80 16.85
  Q 46.40 16.28 44.98 15.36
  L 43.54 14.42
  A 0.88 0.87 16.4 0 1 43.13 13.68
  L 43.10 11.17
  Q 43.09 10.69 43.49 10.40
  Q 44.32 9.80 45.15 9.24
  Q 45.50 9.00 45.65 8.58
  Q 45.80 8.17 45.45 7.83
  A 0.60 0.60 0.0 0 0 44.88 7.67
  L 42.91 8.11
  Q 42.39 8.23 41.94 7.97
  Q 38.76 6.11 40.21 3.14
  A 0.56 0.56 0.0 0 0 39.84 2.36
  L 39.58 2.29
  A 0.88 0.88 0.0 0 0 38.62 2.70
  L 37.65 4.35
  Q 37.36 4.84 36.79 4.84
  L 34.28 4.85
  Q 33.64 4.85 33.31 4.30
  L 32.36 2.71
  A 0.85 0.84 59.4 0 0 31.22 2.41
  L 31.00 2.54
  A 0.48 0.48 0.0 0 0 30.81 3.15
  Q 32.22 6.23 29.05 8.05
  Q 28.58 8.31 28.05 8.20
  L 26.02 7.78
  A 0.46 0.46 0.0 0 0 25.46 8.21
  L 25.44 8.58
  A 1.00 1.00 0.0 0 0 26.12 9.57
  Q 28.87 10.49 27.82 14.03
  Q 27.67 14.53 27.22 14.80
  L 25.73 15.69
  A 0.61 0.61 0.0 0 0 25.50 16.49
  L 25.64 16.77
  Q 25.96 17.40 26.61 17.12
  Q 29.47 15.88 31.21 19.03
  Q 31.45 19.47 31.34 19.95
  L 30.96 21.59
  A 0.83 0.81 38.3 0 0 31.03 22.13
  Q 31.30 22.63 31.74 22.61
  Q 32.16 22.60 32.39 22.25
  L 33.52 20.51
  Q 33.76 20.14 34.18 20.05
  Z
  M 13.48 22.55
  L 10.72 23.62
  Q 10.08 23.87 9.53 23.48
  L 7.18 21.82
  A 0.72 0.71 45.3 0 0 6.36 21.81
  Q 5.72 22.25 5.55 22.98
  Q 5.46 23.37 5.69 23.70
  L 7.35 26.05
  A 0.73 0.70 39.2 0 1 7.43 26.72
  L 6.16 29.85
  Q 5.94 30.38 5.38 30.47
  L 2.60 30.92
  Q 2.08 31.00 1.91 31.50
  Q 1.72 32.07 1.92 32.69
  Q 2.10 33.25 2.68 33.35
  L 5.39 33.81
  Q 5.93 33.91 6.13 34.41
  L 7.38 37.44
  A 0.88 0.85 49.1 0 1 7.34 38.17
  Q 6.72 39.27 5.84 40.32
  Q 5.43 40.81 5.53 41.38
  Q 5.64 42.06 6.42 42.45
  A 0.77 0.77 0.0 0 0 7.21 42.40
  L 9.65 40.75
  Q 10.13 40.43 10.66 40.65
  L 13.55 41.86
  Q 14.09 42.09 14.18 42.67
  L 14.60 45.51
  Q 14.69 46.08 15.26 46.10
  L 16.23 46.13
  A 0.76 0.76 0.0 0 0 16.99 45.51
  L 17.54 42.57
  A 1.02 1.01 84.2 0 1 18.15 41.81
  L 21.03 40.63
  Q 21.60 40.39 22.10 40.75
  L 24.28 42.28
  A 0.93 0.93 0.0 0 0 25.09 42.42
  Q 25.72 42.24 26.07 41.65
  Q 26.37 41.14 26.03 40.65
  L 24.36 38.29
  Q 24.05 37.85 24.26 37.35
  L 25.47 34.45
  Q 25.70 33.89 26.30 33.79
  L 28.89 33.39
  Q 29.45 33.30 29.71 32.80
  Q 30.03 32.20 29.81 31.54
  Q 29.66 31.08 29.19 31.00
  L 26.29 30.50
  Q 25.67 30.40 25.44 29.82
  L 24.28 27.03
  Q 24.05 26.47 24.40 25.97
  L 26.15 23.46
  Q 26.44 23.06 26.09 22.70
  L 25.36 21.94
  A 0.72 0.70 -40.1 0 0 24.42 21.87
  L 22.15 23.54
  A 1.16 1.14 -51.8 0 1 21.04 23.68
  L 18.18 22.52
  Q 17.61 22.28 17.50 21.67
  L 16.97 18.83
  Q 16.90 18.41 16.49 18.28
  Q 15.85 18.09 15.24 18.29
  A 0.94 0.94 0.0 0 0 14.61 19.03
  L 14.21 21.63
  Q 14.11 22.30 13.48 22.55
  Z
  M 25.93 19.20
  Q 25.45 19.38 25.81 19.74
  L 28.19 22.16
  Q 28.73 22.70 28.97 21.97
  Q 29.36 20.74 29.28 19.59
  A 0.88 0.87 89.6 0 0 28.46 18.77
  Q 27.22 18.70 25.93 19.20
  Z"
/>
<path fill="#fdfefe" d="
  M 40.39 12.44
  A 4.84 4.84 0.0 0 1 35.55 17.28
  A 4.84 4.84 0.0 0 1 30.71 12.44
  A 4.84 4.84 0.0 0 1 35.55 7.60
  A 4.84 4.84 0.0 0 1 40.39 12.44
  Z
  M 38.52 12.43
  A 2.95 2.95 0.0 0 0 35.57 9.48
  A 2.95 2.95 0.0 0 0 32.62 12.43
  A 2.95 2.95 0.0 0 0 35.57 15.38
  A 2.95 2.95 0.0 0 0 38.52 12.43
  Z"
/>
<path fill="#fdfefe" d="
  M 21.70 32.15
  A 5.86 5.86 0.0 0 1 15.84 38.01
  A 5.86 5.86 0.0 0 1 9.98 32.15
  A 5.86 5.86 0.0 0 1 15.84 26.29
  A 5.86 5.86 0.0 0 1 21.70 32.15
  Z
  M 19.83 32.16
  A 4.00 4.00 0.0 0 0 15.83 28.16
  A 4.00 4.00 0.0 0 0 11.83 32.16
  A 4.00 4.00 0.0 0 0 15.83 36.16
  A 4.00 4.00 0.0 0 0 19.83 32.16
  Z"
/>
</svg>
