<?xml version="1.0" encoding="UTF-8" standalone="no"?>
<!DOCTYPE svg PUBLIC "-//W3C//DTD SVG 1.1//EN" "http://www.w3.org/Graphics/SVG/1.1/DTD/svg11.dtd">
<svg xmlns="http://www.w3.org/2000/svg" version="1.1" viewBox="0.00 0.00 48.00 48.00">
<path fill="#FFF" d="
  M 9.32 0.00
  L 10.00 0.00
  C 13.14 3.62 17.25 9.16 11.19 12.13
  Q 10.57 12.43 10.57 11.74
  L 10.53 7.33
  A 0.52 0.51 -86.2 0 0 10.09 6.82
  L 9.63 6.76
  A 0.89 0.88 -86.0 0 0 8.63 7.63
  L 8.61 11.88
  A 0.33 0.32 -76.7 0 1 8.15 12.17
  C 1.91 9.20 6.04 3.36 9.32 0.00
  Z"
/>
<path fill="#FFF" d="
  M 23.65 0.00
  L 24.43 0.00
  C 27.70 3.75 31.62 9.68 25.52 12.09
  Q 25.00 12.30 25.00 11.74
  L 24.99 7.49
  A 0.72 0.72 0.0 0 0 24.24 6.77
  L 23.85 6.78
  Q 23.01 6.81 23.01 7.65
  L 23.00 11.73
  Q 23.00 12.41 22.38 12.12
  C 16.19 9.29 20.80 2.99 23.65 0.00
  Z"
/>
<path fill="#FFF" d="
  M 38.09 0.00
  L 38.75 0.00
  C 41.81 3.24 45.62 8.09 40.64 11.86
  Q 39.42 12.78 39.40 11.26
  L 39.34 7.31
  A 0.62 0.62 0.0 0 0 38.63 6.71
  L 38.28 6.76
  Q 37.45 6.88 37.44 7.72
  L 37.42 11.74
  Q 37.42 12.41 36.81 12.13
  C 30.89 9.33 34.69 3.55 38.09 0.00
  Z"
/>
<path fill="#FFF" d="
  M 5.52 12.97
  C 7.13 14.29 9.35 14.80 11.32 14.14
  Q 15.21 12.82 14.01 16.75
  Q 13.02 20.02 13.53 24.07
  A 0.72 0.72 0.0 0 1 12.83 24.88
  L 6.26 24.97
  Q 5.73 24.98 5.73 24.45
  C 5.74 22.16 6.23 18.99 5.02 16.94
  C 4.35 15.80 3.31 14.27 4.46 13.04
  Q 4.96 12.51 5.52 12.97
  Z"
/>
<path fill="#FFF" d="
  M 28.43 16.92
  C 27.38 19.13 27.82 21.77 27.81 24.17
  Q 27.81 24.91 27.07 24.91
  L 20.93 24.91
  Q 20.10 24.91 20.15 24.08
  C 20.36 21.07 20.56 18.35 18.73 15.67
  Q 17.77 14.27 18.85 12.99
  Q 19.25 12.53 19.73 12.89
  Q 23.18 15.44 26.83 13.79
  Q 27.57 13.45 28.10 14.08
  Q 29.18 15.36 28.43 16.92
  Z"
/>
<path fill="#FFF" d="
  M 34.23 12.93
  C 36.16 14.48 38.71 14.87 40.96 13.90
  A 1.57 1.56 -2.4 0 1 43.06 15.83
  Q 41.77 19.68 42.33 24.68
  A 0.28 0.27 -3.6 0 1 42.05 24.99
  L 34.82 24.88
  Q 34.60 24.88 34.59 24.66
  Q 34.54 22.26 34.59 19.79
  C 34.63 17.63 33.26 16.53 32.78 14.62
  Q 32.54 13.71 33.21 13.00
  Q 33.69 12.50 34.23 12.93
  Z"
/>
<path fill="#FFF" d="
  M 17.19 34.40
  Q 15.94 32.77 15.33 34.73
  C 14.17 38.49 10.26 38.20 9.59 34.40
  Q 9.52 34.00 9.18 33.80
  Q 8.74 33.54 8.26 33.73
  Q 7.73 33.93 7.65 34.49
  Q 7.18 37.74 4.04 37.28
  Q 3.44 37.19 3.04 36.73
  C 1.84 35.33 0.54 33.20 1.28 31.29
  Q 2.98 26.94 7.66 26.92
  Q 22.68 26.82 40.15 26.89
  C 45.10 26.91 49.29 31.78 45.32 36.20
  Q 43.14 38.64 40.84 36.12
  A 1.49 1.46 23.4 0 1 40.46 35.19
  Q 40.45 34.76 40.31 34.36
  Q 40.13 33.85 39.63 33.66
  Q 39.26 33.53 38.93 33.72
  A 1.17 1.15 79.3 0 0 38.37 34.56
  C 37.84 38.37 33.13 38.30 32.64 34.42
  Q 32.58 33.94 32.15 33.73
  Q 31.73 33.53 31.30 33.72
  Q 30.86 33.91 30.75 34.40
  C 30.15 36.98 27.92 38.65 25.68 36.36
  Q 25.24 35.91 25.17 35.28
  Q 25.08 34.45 24.58 33.87
  A 0.76 0.76 0.0 0 0 23.41 33.89
  Q 22.93 34.48 22.83 35.26
  Q 22.72 36.06 22.09 36.58
  Q 20.11 38.20 18.12 36.53
  Q 17.57 36.07 17.54 35.34
  Q 17.51 34.81 17.19 34.40
  Z"
/>
<path fill="#FFF" d="
  M 48.00 47.03
  L 48.00 48.00
  L 0.00 48.00
  L 0.00 46.92
  Q 1.48 43.03 1.12 38.15
  Q 1.08 37.49 1.55 37.95
  Q 4.60 40.96 8.32 37.82
  Q 8.67 37.53 9.01 37.83
  Q 12.46 40.95 15.98 37.84
  Q 16.34 37.52 16.69 37.84
  Q 20.20 40.99 23.74 37.77
  Q 24.01 37.53 24.27 37.77
  Q 27.72 40.97 31.32 37.84
  Q 31.72 37.50 32.11 37.85
  Q 35.47 40.95 39.08 37.82
  Q 39.39 37.55 39.69 37.82
  Q 43.03 40.86 46.42 38.03
  Q 46.93 37.60 46.88 38.27
  Q 46.52 43.16 48.00 47.03
  Z"
/>
</svg>
