<?xml version="1.0" encoding="UTF-8" standalone="no"?>
<!DOCTYPE svg PUBLIC "-//W3C//DTD SVG 1.1//EN" "http://www.w3.org/Graphics/SVG/1.1/DTD/svg11.dtd">
<svg xmlns="http://www.w3.org/2000/svg" version="1.1" viewBox="0.00 0.00 48.00 48.00">
<path fill="#ffffff" d="
  M 9.91 43.62
  A 3.22 3.21 62.4 0 0 11.75 44.20
  L 41.72 44.20
  Q 42.25 44.20 42.25 44.73
  L 42.24 45.55
  Q 42.24 46.04 41.76 46.04
  Q 27.36 45.97 12.33 46.04
  C 8.81 46.06 5.82 44.37 5.80 40.43
  Q 5.72 23.56 5.77 8.10
  C 5.79 4.39 8.27 1.94 11.81 1.95
  Q 27.26 2.02 41.68 1.97
  Q 42.24 1.97 42.24 2.53
  L 42.24 37.24
  A 0.23 0.22 -0.0 0 1 42.01 37.46
  L 11.51 37.47
  A 3.19 3.12 -58.2 0 0 10.05 37.83
  Q 5.28 40.37 9.91 43.62
  Z
  M 35.53 10.14
  A 0.61 0.61 0.0 0 0 34.92 9.53
  L 14.04 9.53
  A 0.61 0.61 0.0 0 0 13.43 10.14
  L 13.43 14.76
  A 0.61 0.61 0.0 0 0 14.04 15.37
  L 34.92 15.37
  A 0.61 0.61 0.0 0 0 35.53 14.76
  L 35.53 10.14
  Z"
/>
</svg>
