<?xml version="1.0" encoding="UTF-8" standalone="no"?>
<!DOCTYPE svg PUBLIC "-//W3C//DTD SVG 1.1//EN" "http://www.w3.org/Graphics/SVG/1.1/DTD/svg11.dtd">
<svg xmlns="http://www.w3.org/2000/svg" version="1.1" viewBox="0.00 0.00 50.00 50.00">
<path fill="#fefefe" d="
  M 46.52 35.92
  L 48.03 36.14
  A 1.02 1.01 6.6 0 1 48.90 37.23
  C 48.64 40.44 46.41 41.94 43.43 41.95
  Q 23.51 41.99 5.88 41.87
  C 3.19 41.85 1.41 40.00 1.11 37.30
  Q 1.03 36.59 1.71 36.34
  Q 2.61 36.02 3.54 36.04
  Q 4.19 36.06 4.16 35.41
  Q 3.77 26.48 4.20 11.83
  Q 4.31 8.07 8.09 8.09
  Q 25.00 8.15 42.16 8.02
  A 3.84 3.83 89.8 0 1 46.02 11.86
  L 45.96 35.27
  Q 45.96 35.84 46.52 35.92
  Z
  M 44.00 11.92
  A 1.95 1.95 0.0 0 0 42.05 9.97
  L 7.93 9.97
  A 1.95 1.95 0.0 0 0 5.98 11.92
  L 5.98 34.10
  A 1.95 1.95 0.0 0 0 7.93 36.05
  L 42.05 36.05
  A 1.95 1.95 0.0 0 0 44.00 34.10
  L 44.00 11.92
  Z
  M 46.31 37.98
  L 4.24 38.01
  Q 2.79 38.01 3.73 39.11
  Q 4.46 39.96 6.50 39.97
  Q 25.41 39.99 43.93 40.02
  Q 44.64 40.02 45.29 39.72
  Q 46.21 39.30 46.64 38.57
  Q 47.00 37.98 46.31 37.98
  Z"
/>
<rect fill="#fefefe" x="-0.97" y="-8.10" transform="translate(25.00,22.98) rotate(12.1)" width="1.94" height="16.20" rx="0.94"/>
<path fill="#fefefe" d="
  M 16.45 23.24
  L 19.02 26.84
  A 0.42 0.42 0.0 0 1 18.91 27.44
  L 18.06 27.99
  A 0.42 0.42 0.0 0 1 17.49 27.89
  L 13.95 23.25
  A 0.42 0.42 0.0 0 1 13.95 22.73
  L 17.49 18.13
  A 0.42 0.42 0.0 0 1 18.04 18.03
  L 18.91 18.55
  A 0.42 0.42 0.0 0 1 19.04 19.16
  L 16.46 22.76
  A 0.42 0.42 0.0 0 0 16.45 23.24
  Z"
/>
<path fill="#fefefe" d="
  M 33.59 22.76
  L 31.00 19.16
  A 0.41 0.41 0.0 0 1 31.10 18.58
  L 31.94 18.02
  A 0.41 0.41 0.0 0 1 32.49 18.11
  L 36.06 22.73
  A 0.41 0.41 0.0 0 1 36.06 23.23
  L 32.50 27.89
  A 0.41 0.41 0.0 0 1 31.95 27.98
  L 31.08 27.41
  A 0.41 0.41 0.0 0 1 30.97 26.82
  L 33.59 23.24
  A 0.41 0.41 0.0 0 0 33.59 22.76
  Z"
/>
</svg>
