<?xml version="1.0" encoding="UTF-8" standalone="no"?>
<!DOCTYPE svg PUBLIC "-//W3C//DTD SVG 1.1//EN" "http://www.w3.org/Graphics/SVG/1.1/DTD/svg11.dtd">
<svg xmlns="http://www.w3.org/2000/svg" version="1.1" viewBox="0.00 0.00 48.00 48.00">
<rect fill="#fdfdfd" x="-0.95" y="-1.85" transform="translate(12.49,2.92) rotate(-0.1)" width="1.90" height="3.70" rx="0.71"/>
<rect fill="#fdfdfd" x="-0.92" y="-1.89" transform="translate(20.17,2.97) rotate(-0.8)" width="1.84" height="3.78" rx="0.78"/>
<rect fill="#fdfdfd" x="-0.92" y="-1.88" transform="translate(27.85,2.97) rotate(1.6)" width="1.84" height="3.76" rx="0.73"/>
<rect fill="#fdfdfd" x="-0.95" y="-1.86" transform="translate(35.53,2.91) rotate(0.9)" width="1.90" height="3.72" rx="0.73"/>
<path fill="#fdfdfd" d="
  M 42.2136 39.1618
  A 3.12 3.12 0.0 0 1 39.0881 42.2764
  L 8.8482 42.2236
  A 3.12 3.12 0.0 0 1 5.7336 39.0981
  L 5.7864 8.8382
  A 3.12 3.12 0.0 0 1 8.9119 5.7236
  L 39.1518 5.7764
  A 3.12 3.12 0.0 0 1 42.2664 8.9019
  L 42.2136 39.1618
  Z
  M 40.35 8.64
  A 1.01 1.01 0.0 0 0 39.34 7.63
  L 8.66 7.63
  A 1.01 1.01 0.0 0 0 7.65 8.64
  L 7.65 39.36
  A 1.01 1.01 0.0 0 0 8.66 40.37
  L 39.34 40.37
  A 1.01 1.01 0.0 0 0 40.35 39.36
  L 40.35 8.64
  Z"
/>
<circle fill="#fdfdfd" cx="12.48" cy="12.48" r="1.85"/>
<rect fill="#fdfdfd" x="-1.85" y="-0.95" transform="translate(2.93,12.50) rotate(0.1)" width="3.70" height="1.90" rx="0.72"/>
<rect fill="#fdfdfd" x="-1.87" y="-0.95" transform="translate(45.07,12.49) rotate(-0.2)" width="3.74" height="1.90" rx="0.72"/>
<rect fill="#fdfdfd" x="-1.89" y="-0.94" transform="translate(2.98,20.18) rotate(1.2)" width="3.78" height="1.88" rx="0.77"/>
<rect fill="#fdfdfd" x="-1.86" y="-0.93" transform="translate(45.03,20.18) rotate(-1.2)" width="3.72" height="1.86" rx="0.65"/>
<rect fill="#fdfdfd" x="-1.89" y="-0.94" transform="translate(2.98,27.83) rotate(-1.2)" width="3.78" height="1.88" rx="0.80"/>
<rect fill="#fdfdfd" x="-1.88" y="-0.94" transform="translate(45.04,27.83) rotate(1.5)" width="3.76" height="1.88" rx="0.68"/>
<circle fill="#fdfdfd" cx="35.52" cy="35.52" r="1.85"/>
<rect fill="#fdfdfd" x="-1.85" y="-0.96" transform="translate(2.93,35.50) rotate(-0.2)" width="3.70" height="1.92" rx="0.73"/>
<rect fill="#fdfdfd" x="-1.86" y="-0.95" transform="translate(45.07,35.50) rotate(0.2)" width="3.72" height="1.90" rx="0.72"/>
<rect fill="#fdfdfd" x="-0.91" y="-1.90" transform="translate(20.15,45.02) rotate(1.2)" width="1.82" height="3.80" rx="0.71"/>
<rect fill="#fdfdfd" x="-0.94" y="-1.86" transform="translate(12.47,45.08) rotate(-0.2)" width="1.88" height="3.72" rx="0.68"/>
<rect fill="#fdfdfd" x="-0.92" y="-1.85" transform="translate(27.84,45.04) rotate(-1.3)" width="1.84" height="3.70" rx="0.62"/>
<rect fill="#fdfdfd" x="34.58" y="43.21" width="1.88" height="3.72" rx="0.62"/>
</svg>
