<?xml version="1.0" encoding="UTF-8" standalone="no"?>
<!DOCTYPE svg PUBLIC "-//W3C//DTD SVG 1.1//EN" "http://www.w3.org/Graphics/SVG/1.1/DTD/svg11.dtd">
<svg xmlns="http://www.w3.org/2000/svg" version="1.1" viewBox="0.00 0.00 48.00 48.00">
<path fill="#fefefe" d="
  M 23.71 44.60
  Q 22.82 45.68 21.47 45.88
  Q 16.22 46.68 13.95 42.52
  A 0.99 0.98 -8.2 0 0 13.26 42.01
  Q 6.60 40.74 8.19 34.47
  Q 8.31 34.01 7.91 33.77
  Q 1.63 29.93 5.21 23.84
  Q 5.47 23.41 5.25 22.95
  C 2.46 17.18 4.00 9.68 10.15 7.16
  Q 10.73 6.92 11.09 6.40
  Q 14.28 1.66 21.18 2.01
  Q 22.62 2.08 23.65 3.13
  A 0.50 0.50 0.0 0 0 24.38 3.11
  Q 25.16 2.21 26.28 2.09
  Q 33.01 1.38 35.87 6.26
  Q 36.18 6.81 36.77 7.04
  Q 44.84 10.27 43.96 19.00
  C 43.82 20.41 43.05 21.77 42.62 23.14
  Q 42.44 23.70 42.75 24.21
  Q 46.31 30.16 40.94 33.77
  Q 40.55 34.03 40.71 34.47
  Q 42.35 38.91 38.39 41.22
  C 37.23 41.89 36.07 41.90 34.80 42.10
  Q 34.26 42.19 33.98 42.65
  Q 31.48 46.75 26.44 45.86
  Q 25.16 45.64 24.30 44.60
  A 0.38 0.38 0.0 0 0 23.71 44.60
  Z
  M 20.13 13.06
  L 20.13 16.94
  Q 20.13 17.26 20.44 17.26
  L 22.77 17.28
  A 0.30 0.30 0.0 0 0 23.07 16.98
  L 22.97 5.80
  A 1.91 1.90 -87.9 0 0 21.22 3.91
  Q 14.92 3.41 12.28 8.09
  Q 12.04 8.52 11.56 8.64
  C 5.94 10.01 4.80 16.82 6.67 21.68
  A 0.66 0.66 0.0 0 0 7.29 22.11
  L 10.25 22.08
  Q 10.78 22.08 11.05 21.62
  C 12.37 19.37 15.78 19.99 16.15 22.48
  C 16.55 25.14 13.21 27.20 11.50 25.01
  A 3.06 3.03 47.6 0 0 6.88 24.78
  C 3.83 28.02 6.93 31.75 10.28 32.83
  Q 11.16 33.12 10.61 33.87
  C 8.06 37.29 10.77 40.33 14.47 40.28
  Q 15.00 40.28 15.17 40.78
  Q 16.53 44.71 21.07 44.05
  A 2.28 2.28 0.0 0 0 23.03 41.79
  L 23.04 29.52
  Q 23.04 28.76 22.27 28.76
  L 19.00 28.76
  Q 18.27 28.76 18.26 29.50
  L 18.21 32.28
  Q 18.20 32.80 18.65 33.07
  C 22.86 35.54 17.18 41.07 14.87 36.84
  Q 13.65 34.61 15.89 33.08
  Q 16.35 32.76 16.35 32.21
  L 16.34 27.52
  Q 16.34 26.95 16.91 26.90
  Q 19.52 26.69 21.97 26.99
  Q 23.02 27.12 23.02 26.06
  L 23.04 20.11
  Q 23.04 19.18 22.11 19.18
  L 18.85 19.20
  Q 18.25 19.20 18.25 18.60
  L 18.25 14.99
  Q 18.25 14.48 17.76 14.37
  C 16.95 14.20 16.24 14.25 15.74 14.99
  C 12.94 19.09 7.87 12.73 12.38 10.87
  Q 14.47 10.01 15.84 12.01
  Q 16.17 12.50 16.76 12.50
  L 19.56 12.50
  Q 20.13 12.50 20.13 13.06
  Z
  M 40.27 28.45
  L 40.27 31.03
  Q 40.27 32.69 41.23 31.33
  Q 42.78 29.10 41.98 26.48
  C 41.72 25.63 40.94 25.16 40.44 24.48
  Q 40.15 24.08 40.35 23.63
  C 41.13 21.94 42.12 19.91 42.18 18.07
  Q 42.42 10.49 35.21 8.49
  Q 34.78 8.37 34.62 7.95
  Q 33.04 3.63 27.10 3.83
  A 2.14 2.13 89.4 0 0 25.04 5.94
  L 24.94 11.96
  Q 24.93 12.49 25.46 12.49
  L 32.25 12.50
  Q 32.77 12.50 33.05 12.06
  C 34.54 9.76 38.03 10.33 38.26 13.13
  C 38.50 16.16 34.77 17.49 33.10 14.84
  A 1.02 1.01 73.8 0 0 32.24 14.36
  L 25.59 14.39
  Q 24.97 14.39 24.97 15.02
  L 24.96 34.00
  A 0.55 0.53 0.6 0 0 25.50 34.53
  L 28.46 34.55
  Q 28.93 34.55 29.20 34.16
  Q 30.95 31.68 33.39 33.33
  A 2.56 2.55 -60.3 0 1 34.27 36.56
  C 33.10 38.96 30.65 38.80 29.15 36.82
  A 0.93 0.92 71.3 0 0 28.41 36.45
  L 25.49 36.48
  Q 24.97 36.48 24.97 37.01
  L 24.98 41.94
  A 2.10 2.10 0.0 0 0 26.77 44.02
  Q 31.46 44.73 32.75 40.88
  Q 32.94 40.31 33.54 40.32
  C 36.55 40.33 40.69 39.22 38.97 35.08
  Q 38.16 33.11 38.53 30.67
  Q 38.67 29.73 37.72 29.73
  L 30.25 29.74
  A 0.49 0.49 0.0 0 1 29.76 29.25
  L 29.76 25.42
  A 1.18 1.16 21.7 0 0 29.38 24.56
  C 25.35 20.95 30.90 17.18 33.03 20.58
  Q 34.49 22.90 32.03 24.55
  A 0.87 0.87 0.0 0 0 31.65 25.27
  L 31.63 27.25
  Q 31.63 27.87 32.25 27.87
  L 39.70 27.87
  Q 40.27 27.87 40.27 28.45
  Z
  M 14.34 13.44
  A 0.94 0.94 0.0 0 0 13.40 12.50
  A 0.94 0.94 0.0 0 0 12.46 13.44
  A 0.94 0.94 0.0 0 0 13.40 14.38
  A 0.94 0.94 0.0 0 0 14.34 13.44
  Z
  M 36.49 13.44
  A 0.95 0.95 0.0 0 0 35.54 12.49
  A 0.95 0.95 0.0 0 0 34.59 13.44
  A 0.95 0.95 0.0 0 0 35.54 14.39
  A 0.95 0.95 0.0 0 0 36.49 13.44
  Z
  M 31.66 22.06
  A 0.96 0.96 0.0 0 0 30.70 21.10
  A 0.96 0.96 0.0 0 0 29.74 22.06
  A 0.96 0.96 0.0 0 0 30.70 23.02
  A 0.96 0.96 0.0 0 0 31.66 22.06
  Z
  M 14.38 23.05
  A 0.93 0.93 0.0 0 0 13.45 22.12
  A 0.93 0.93 0.0 0 0 12.52 23.05
  A 0.93 0.93 0.0 0 0 13.45 23.98
  A 0.93 0.93 0.0 0 0 14.38 23.05
  Z
  M 32.63 35.52
  A 0.93 0.93 0.0 0 0 31.70 34.59
  A 0.93 0.93 0.0 0 0 30.77 35.52
  A 0.93 0.93 0.0 0 0 31.70 36.45
  A 0.93 0.93 0.0 0 0 32.63 35.52
  Z
  M 18.22 35.54
  A 0.94 0.94 0.0 0 0 17.28 34.60
  A 0.94 0.94 0.0 0 0 16.34 35.54
  A 0.94 0.94 0.0 0 0 17.28 36.48
  A 0.94 0.94 0.0 0 0 18.22 35.54
  Z"
/>
</svg>
