<?xml version="1.0" encoding="UTF-8" standalone="no"?>
<!DOCTYPE svg PUBLIC "-//W3C//DTD SVG 1.1//EN" "http://www.w3.org/Graphics/SVG/1.1/DTD/svg11.dtd">
<svg xmlns="http://www.w3.org/2000/svg" version="1.1" viewBox="0.00 0.00 48.00 48.00">
<rect fill="#fdfefe" x="-0.75" y="-2.25" transform="translate(21.76,3.76) rotate(0.8)" width="1.50" height="4.50" rx="0.55"/>
<rect fill="#fdfefe" x="-0.74" y="-2.41" transform="translate(11.25,6.36) rotate(-38.8)" width="1.48" height="4.82" rx="0.58"/>
<rect fill="#fdfefe" x="-0.72" y="-2.46" transform="translate(32.30,6.33) rotate(38.7)" width="1.44" height="4.92" rx="0.57"/>
<path fill="#fdfefe" d="
  M 29.92 35.36
  Q 29.86 34.03 29.29 35.23
  Q 27.53 38.86 27.72 42.88
  Q 27.78 44.30 26.51 44.94
  Q 21.46 47.46 16.75 44.77
  A 1.98 1.96 16.7 0 1 15.75 42.93
  C 16.00 39.08 14.81 35.60 12.39 32.63
  C 11.01 30.93 9.48 29.13 8.66 27.09
  C 3.37 14.02 17.98 2.22 29.71 10.02
  Q 34.51 13.21 35.69 18.92
  Q 35.82 19.53 36.45 19.53
  L 44.26 19.53
  A 2.24 2.23 0.0 0 1 46.50 21.76
  L 46.50 44.25
  A 2.25 2.25 0.0 0 1 44.25 46.50
  L 32.33 46.50
  A 2.36 2.36 0.0 0 1 29.97 44.07
  Q 30.10 39.50 29.92 35.36
  Z
  M 34.29 19.29
  C 31.99 7.69 16.58 5.35 10.68 15.36
  C 7.85 20.16 8.66 26.05 12.35 30.24
  Q 14.48 32.65 15.89 35.50
  Q 16.14 36.01 16.70 36.01
  L 18.75 36.00
  Q 19.50 36.00 19.50 35.25
  L 19.50 28.45
  Q 19.50 27.58 18.64 27.68
  C 15.18 28.10 13.58 23.48 16.68 22.16
  C 19.03 21.16 21.42 22.93 20.98 25.54
  A 0.71 0.70 -86.3 0 0 21.70 26.36
  L 22.06 26.34
  Q 22.60 26.33 22.53 25.80
  Q 22.21 23.10 24.33 22.08
  C 27.41 20.58 30.13 25.10 27.19 27.14
  Q 25.99 27.96 24.74 27.67
  Q 23.99 27.50 23.99 28.27
  L 24.00 35.25
  Q 24.00 36.01 24.75 36.01
  L 26.75 36.00
  Q 27.44 36.00 27.72 35.36
  Q 28.74 33.08 30.46 31.12
  Q 35.50 25.39 34.29 19.29
  Z
  M 36.02 21.20
  L 36.02 22.26
  A 0.24 0.24 0.0 0 0 36.26 22.50
  L 39.47 22.50
  A 1.55 0.67 0.1 0 0 41.02 21.83
  L 41.02 21.63
  A 1.55 0.67 0.1 0 0 39.47 20.96
  L 36.26 20.96
  A 0.24 0.24 0.0 0 0 36.02 21.20
  Z
  M 42.39 21.94
  C 41.39 24.49 38.68 24.16 36.50 23.86
  Q 35.85 23.77 35.69 24.41
  Q 34.73 28.42 31.92 31.57
  A 1.70 1.68 66.2 0 0 31.49 32.70
  L 31.50 44.25
  Q 31.50 45.00 32.25 45.00
  L 44.25 45.00
  A 0.75 0.75 0.0 0 0 45.00 44.25
  L 45.00 21.96
  Q 45.00 21.42 44.55 21.13
  Q 44.04 20.81 43.42 21.00
  A 1.56 1.55 -87.2 0 0 42.39 21.94
  Z
  M 19.31 24.18
  Q 18.92 23.10 17.72 23.28
  A 1.37 1.36 5.3 0 0 16.62 24.19
  Q 16.08 25.76 17.95 26.31
  Q 19.59 26.78 19.50 25.08
  Q 19.48 24.64 19.31 24.18
  Z
  M 24.47 26.31
  Q 26.41 26.58 26.92 25.16
  A 1.40 1.40 0.0 0 0 25.91 23.32
  Q 24.51 23.01 24.11 24.30
  Q 23.90 24.99 23.97 25.78
  Q 24.01 26.24 24.47 26.31
  Z
  M 22.50 28.03
  A 0.35 0.35 0.0 0 0 22.15 27.68
  L 21.35 27.68
  A 0.35 0.35 0.0 0 0 21.00 28.03
  L 21.00 35.67
  A 0.35 0.35 0.0 0 0 21.35 36.02
  L 22.15 36.02
  A 0.35 0.35 0.0 0 0 22.50 35.67
  L 22.50 28.03
  Z
  M 26.7791 37.9825
  A 0.51 0.51 0.0 0 0 26.2674 37.4743
  L 17.2874 37.5057
  A 0.51 0.51 0.0 0 0 16.7792 38.0175
  L 16.7809 38.4975
  A 0.51 0.51 0.0 0 0 17.2926 39.0057
  L 26.2726 38.9743
  A 0.51 0.51 0.0 0 0 26.7808 38.4625
  L 26.7791 37.9825
  Z
  M 26.41 41.08
  A 0.58 0.58 0.0 0 0 25.83 40.50
  L 17.65 40.50
  A 0.58 0.58 0.0 0 0 17.07 41.08
  L 17.07 41.42
  A 0.58 0.58 0.0 0 0 17.65 42.00
  L 25.83 42.00
  A 0.58 0.58 0.0 0 0 26.41 41.42
  L 26.41 41.08
  Z
  M 25.39 43.48
  L 18.13 43.52
  A 0.04 0.04 0.0 0 0 18.09 43.56
  L 18.09 43.86
  A 3.52 0.70 -0.3 0 0 21.61 44.54
  L 21.91 44.54
  A 3.52 0.70 -0.3 0 0 25.43 43.82
  L 25.43 43.52
  A 0.04 0.04 0.0 0 0 25.39 43.48
  Z"
/>
<rect fill="#fdfefe" x="-2.22" y="-0.73" transform="translate(5.62,13.11) rotate(31.4)" width="4.44" height="1.46" rx="0.62"/>
<rect fill="#fdfefe" x="-2.29" y="-0.72" transform="translate(37.91,13.11) rotate(-31.0)" width="4.58" height="1.44" rx="0.69"/>
<path fill="#fdfefe" d="
  M 26.57 15.26
  C 23.82 13.02 19.56 12.77 16.80 15.34
  Q 16.37 15.74 16.01 15.27
  L 15.78 14.98
  A 0.58 0.58 0.0 0 1 15.90 14.16
  Q 21.79 9.86 27.69 14.24
  A 0.51 0.51 0.0 0 1 27.77 14.99
  L 27.59 15.18
  Q 27.12 15.70 26.57 15.26
  Z"
/>
<path fill="#fdfefe" d="
  M 24.47 17.40
  C 22.43 15.94 20.62 16.40 18.62 17.55
  A 0.39 0.38 -32.3 0 1 18.11 17.44
  L 17.84 17.05
  A 0.57 0.57 0.0 0 1 18.02 16.23
  Q 22.09 13.80 25.56 16.37
  A 0.49 0.49 0.0 0 1 25.62 17.10
  L 25.43 17.30
  Q 24.99 17.77 24.47 17.40
  Z"
/>
<path fill="#fdfefe" d="
  M 20.94 19.60
  Q 20.56 19.81 20.18 19.44
  Q 19.54 18.83 20.33 18.44
  Q 21.43 17.89 22.80 18.19
  Q 23.52 18.35 23.45 19.09
  Q 23.44 19.29 23.33 19.46
  A 0.58 0.58 0.0 0 1 22.72 19.73
  L 21.51 19.51
  Q 21.21 19.45 20.94 19.60
  Z"
/>
<rect fill="#fdfefe" x="-2.25" y="-0.74" transform="translate(3.67,20.99) rotate(0.1)" width="4.50" height="1.48" rx="0.62"/>
<rect fill="#fdfefe" x="-0.75" y="-1.88" transform="translate(38.24,33.39) rotate(0.3)" width="1.50" height="3.76" rx="0.60"/>
<path fill="#fdfefe" d="
  M 40.85 37.43
  Q 41.89 35.59 40.24 33.54
  A 0.39 0.38 49.1 0 1 40.27 33.02
  L 40.53 32.77
  A 0.56 0.55 42.9 0 1 41.26 32.75
  C 45.06 35.91 40.87 42.27 36.30 39.94
  C 33.56 38.54 32.82 34.82 35.28 32.76
  A 0.44 0.43 51.2 0 1 35.91 32.83
  L 36.08 33.05
  Q 36.42 33.50 36.06 33.94
  C 33.13 37.45 38.70 41.23 40.85 37.43
  Z"
/>
</svg>
