<?xml version="1.0" encoding="UTF-8" standalone="no"?>
<!DOCTYPE svg PUBLIC "-//W3C//DTD SVG 1.1//EN" "http://www.w3.org/Graphics/SVG/1.1/DTD/svg11.dtd">
<svg xmlns="http://www.w3.org/2000/svg" version="1.1" viewBox="0.00 0.00 48.00 48.00">
<path fill="#ffffff" d="
  M 39.40 15.21
  C 42.94 10.86 36.53 4.96 32.13 9.08
  C 29.75 11.31 27.48 13.29 25.89 16.29
  Q 24.89 18.15 22.77 19.61
  A 0.26 0.26 0.0 0 1 22.37 19.45
  Q 21.30 14.52 24.78 11.09
  C 27.28 8.63 29.90 5.08 33.31 4.23
  Q 38.42 2.95 41.87 6.78
  C 45.62 10.94 44.34 16.09 40.53 19.70
  C 36.86 23.17 34.72 26.59 28.72 25.70
  Q 28.16 25.61 28.48 25.14
  Q 29.99 22.98 31.99 21.96
  C 34.81 20.53 37.52 17.53 39.40 15.21
  Z"
/>
<rect fill="#ffffff" x="-1.87" y="-10.05" transform="translate(24.00,24.00) rotate(45.0)" width="3.74" height="20.10" rx="1.83"/>
<path fill="#ffffff" d="
  M 8.97 32.32
  C 4.78 37.11 11.50 43.41 16.27 38.60
  C 18.25 36.61 20.61 34.70 21.81 32.24
  Q 22.83 30.14 25.18 28.42
  Q 25.55 28.15 25.64 28.59
  C 26.97 34.75 22.59 37.27 19.09 41.10
  C 10.96 49.99 -2.45 37.84 7.42 28.35
  C 11.10 24.81 13.23 21.48 19.29 22.31
  Q 19.90 22.39 19.53 22.89
  Q 17.91 25.09 15.90 26.12
  C 13.21 27.50 10.91 30.09 8.97 32.32
  Z"
/>
</svg>
