<?xml version="1.0" encoding="UTF-8" standalone="no"?>
<!DOCTYPE svg PUBLIC "-//W3C//DTD SVG 1.1//EN" "http://www.w3.org/Graphics/SVG/1.1/DTD/svg11.dtd">
<svg xmlns="http://www.w3.org/2000/svg" version="1.1" viewBox="0.00 0.00 48.00 48.00">
<path fill="#FFF" d="
  M 39.19 18.36
  C 38.03 28.41 31.32 38.74 24.68 46.67
  A 0.89 0.89 0.0 0 1 23.32 46.68
  C 16.64 38.80 10.11 28.72 8.84 18.82
  C 7.97 12.06 11.08 5.73 17.14 2.69
  C 28.17 -2.86 40.60 6.11 39.19 18.36
  Z
  M 29.77 17.27
  A 5.77 5.77 0.0 0 0 24.00 11.50
  A 5.77 5.77 0.0 0 0 18.23 17.27
  A 5.77 5.77 0.0 0 0 24.00 23.04
  A 5.77 5.77 0.0 0 0 29.77 17.27
  Z"
/>
</svg>
