<svg xmlns="http://www.w3.org/2000/svg"  viewBox="0 0 64 64" width="48px" height="48px" baseProfile="basic"><linearGradient id="BYBXDcXLqa7cuP0EpKqZEa" x1="32" x2="32" y1="10" y2="54" gradientUnits="userSpaceOnUse"><stop offset="0" stop-color="#6dc7ff"/><stop offset="1" stop-color="#e6abff"/></linearGradient><path fill="url(#BYBXDcXLqa7cuP0EpKqZEa)" d="M45.723,30c-0.346,0.595-0.984,1-1.723,1c-1.105,0-2-0.895-2-2c0-1.105,0.895-2,2-2	c0.738,0,1.376,0.405,1.723,1H54v-5h-9.277c-0.346,0.595-0.984,1-1.723,1c-1.105,0-2-0.895-2-2c0-1.105,0.895-2,2-2	c0.738,0,1.376,0.405,1.723,1H54v-6c0-2.761-2.239-5-5-5H15c-2.761,0-5,2.239-5,5v2h25.277c0.346-0.595,0.984-1,1.723-1	c1.105,0,2,0.895,2,2c0,1.105-0.895,2-2,2c-0.738,0-1.376-0.405-1.723-1H10v12h3v-7h18.277c0.346-0.595,0.984-1,1.723-1	c1.105,0,2,0.895,2,2c0,1.105-0.895,2-2,2c-0.738,0-1.376-0.405-1.723-1H15v5h20.277c0.346-0.595,0.984-1,1.723-1	c1.105,0,2,0.895,2,2c0,1.105-0.895,2-2,2c-0.738,0-1.376-0.405-1.723-1H10v5h10.777c0.346-0.595,0.984-1,1.723-1	c1.105,0,2,0.895,2,2c0,1.105-0.895,2-2,2c-0.738,0-1.376-0.405-1.723-1H10v5h12.777c0.346-0.595,0.984-1,1.723-1	c1.105,0,2,0.895,2,2c0,1.105-0.895,2-2,2c-0.738,0-1.376-0.405-1.723-1H10v2c0,2.761,2.239,5,5,5h16V40.723	c-0.595-0.346-1-0.984-1-1.723c0-1.105,0.895-2,2-2s2,0.895,2,2c0,0.738-0.405,1.376-1,1.723V54h5V43.723	c-0.595-0.346-1-0.984-1-1.723c0-1.105,0.895-2,2-2s2,0.895,2,2c0,0.738-0.405,1.376-1,1.723V54h5V39.223	c-0.595-0.346-1-0.984-1-1.723c0-1.105,0.895-2,2-2s2,0.895,2,2c0,0.738-0.405,1.376-1,1.723V54h2c2.761,0,5-2.239,5-5V30H45.723z"/><linearGradient id="BYBXDcXLqa7cuP0EpKqZEb" x1="32" x2="32" y1="9" y2="55" gradientUnits="userSpaceOnUse"><stop offset="0" stop-color="#1a6dff"/><stop offset="1" stop-color="#c822ff"/></linearGradient><path fill="url(#BYBXDcXLqa7cuP0EpKqZEb)" d="M49,55H15c-3.309,0-6-2.691-6-6V15c0-3.309,2.691-6,6-6h34c3.309,0,6,2.691,6,6v34	C55,52.309,52.309,55,49,55z M15,11c-2.206,0-4,1.794-4,4v34c0,2.206,1.794,4,4,4h34c2.206,0,4-1.794,4-4V15c0-2.206-1.794-4-4-4H15	z"/></svg>